<svg xmlns="http://www.w3.org/2000/svg" width="209" height="42" viewBox="0 0 209 42">
  <g id="Grupo_5455" data-name="Grupo 5455" transform="translate(255.649 -282.358)">
    <rect id="Rectángulo_2285" data-name="Rectángulo 2285" width="209" height="42" rx="19" transform="translate(-255.649 282.358)" fill="#020005"/>
    <g id="Grupo_5454" data-name="Grupo 5454" transform="translate(-242.642 285.502)">
      <g id="noun_Mouse_3137774" transform="translate(0 0)">
        <g id="Grupo_5448" data-name="Grupo 5448" transform="translate(17.976 0) rotate(39)">
          <g id="Grupo_5447" data-name="Grupo 5447" transform="translate(0 0)">
            <path id="Trazado_4823" data-name="Trazado 4823" d="M20.433.057a.711.711,0,0,0-.874.291c-1.457,2.215-3.41,4.285-6.908,2.3C10.639,1.544,9.3,1.894,8.366,2.477a4.07,4.07,0,0,0-1.807,2.74A7.144,7.144,0,0,0,0,12.329v9.094a7.156,7.156,0,0,0,14.312,0V12.329A7.147,7.147,0,0,0,7.9,5.216,2.72,2.72,0,0,1,9.065,3.555c.933-.583,1.545-.5,3,.233a6.061,6.061,0,0,0,5.305.437A6.484,6.484,0,0,0,20.754.9.659.659,0,0,0,20.433.057ZM13,21.423a5.83,5.83,0,1,1-11.659,0V14.282H13.029v7.141Zm0-9.094v.641H1.312v-.641A5.84,5.84,0,0,1,6.5,6.528V12.97H7.812V6.528A5.84,5.84,0,0,1,13,12.329Zm-5.83,12.33a1.312,1.312,0,1,0-1.312-1.312A1.306,1.306,0,0,0,7.171,24.659Z" transform="translate(0 0)" fill="#f5f8fd"/>
          </g>
        </g>
      </g>
      <g id="Grupo_5451" data-name="Grupo 5451" transform="translate(37.73 3.982)">
        <g id="Grupo_5449" data-name="Grupo 5449" transform="translate(0 0)">
          <text id="Studio" transform="translate(32.263 19.874)" fill="#f5f8fd" font-size="20" font-family="AirbnbCerealApp-ExtraBold, Airbnb Cereal App" font-weight="800"><tspan x="-31.66" y="0">Studio</tspan></text>
        </g>
        <g id="Grupo_5450" data-name="Grupo 5450" transform="translate(76.308 0)">
          <text id="_Div_" data-name="&lt;Div&gt;" transform="translate(31.954 19.874)" fill="#cbcfd8" font-size="20" font-family="AirbnbCerealApp-ExtraBold, Airbnb Cereal App" font-weight="800"><tspan x="-26.9" y="0">&lt;div&gt;</tspan></text>
        </g>
      </g>
    </g>
  </g>
</svg>
